<svg width="407" height="334" viewBox="0 0 407 334" fill="none" xmlns="http://www.w3.org/2000/svg">
<path d="M154.873 32.9047C150.59 39.0752 157.128 42.7407 157.128 42.7407C157.128 42.7407 152.193 50.3264 161.439 53.1852C161.439 53.1852 159.595 65.6819 168.629 68.753L223.652 64.6488C223.652 64.6488 231.04 21.0024 210.094 13.0062C189.149 5.00999 163.481 24.4839 161.226 31.2488C161.24 31.263 157.312 29.3948 154.873 32.9047Z" fill="#35174D"/>
<path d="M390.961 238.017C388.593 262.459 338.42 261.864 330.904 261.864C323.402 261.864 319.36 258.34 319.36 258.34L321.629 273.3L325.402 298.137H273.711C273.711 298.137 126.326 165.146 126.326 144.95C126.326 124.769 137.132 117.211 145.74 116.376C154.334 115.541 196.097 104.856 196.736 101.502C197.36 98.1479 195.658 90.0951 195.658 90.0951C170.713 92.3878 168.501 68.003 168.501 68.003C162.999 57.6999 162.545 41.5519 172.642 46.477C182.739 51.402 196.622 46.1373 198.678 43.2643C200.749 40.4055 205.457 38.8063 206.024 39.4856C206.606 40.1791 206.024 46.0099 206.024 46.0099L210.846 46.8166C210.846 46.8166 212.448 54.2608 212.562 56.5536C212.675 58.8463 214.405 59.2992 215.2 59.2992C216.008 59.2992 217.157 48.4158 217.157 48.4158C217.157 48.4158 226.672 46.8166 226.672 56.5536C226.672 66.2905 218.419 66.9698 218.419 66.9698C220.12 84.5331 227.225 92.501 234.33 96.1524C234.33 96.1524 234.33 96.1524 234.33 96.1665C241.747 99.9877 249.192 99.0961 250.497 99.5065C253.063 100.299 278.561 98.8131 278.561 98.8131C307.207 96.6477 321.232 120.905 323.799 124.047C326.366 127.203 340.59 144.356 362.712 169.986C384.849 195.616 393.344 213.562 390.961 238.017Z" fill="#18C5FF"/>
<path d="M218.348 114.763C200.777 116.773 196.736 101.502 196.736 101.502C197.36 98.1479 195.658 90.0951 195.658 90.0951C170.713 92.3878 168.501 68.003 168.501 68.003C162.999 57.6999 162.545 41.5519 172.642 46.477C182.739 51.402 196.622 46.1373 198.678 43.2643C200.749 40.4055 205.457 38.8063 206.024 39.4856C206.606 40.1791 206.024 46.0099 206.024 46.0099L210.846 46.8166C210.846 46.8166 212.448 54.2609 212.562 56.5536C212.675 58.8463 214.405 59.2992 215.199 59.2992C216.008 59.2992 217.156 48.4158 217.156 48.4158C217.156 48.4158 226.672 46.8166 226.672 56.5536C226.672 66.2905 218.419 66.9698 218.419 66.9698C220.12 84.5331 227.225 92.501 234.33 96.1524C234.33 96.1524 234.33 96.1524 234.33 96.1665C234.387 96.7468 235.606 112.796 218.348 114.763Z" fill="#FDAC9D"/>
<path d="M321.629 273.3C321.629 273.3 302.556 271.134 294.118 268.092C285.694 265.049 269.542 262.445 269.542 262.445V237.65L319.97 255.015L319.616 259.996L321.629 273.3Z" fill="#37164D"/>
<path d="M317.786 217.553C316.07 216.392 316.042 213.802 317.687 212.529C318.524 211.878 319.573 211.354 320.849 211.17C324.636 210.632 339.044 209.868 343.397 209.642C344.248 209.599 344.872 210.264 345.695 210.448C348.786 211.17 353.353 217.949 353.594 224.558C353.92 233.007 354.941 259.798 351.069 260.916C347.68 261.893 329.145 263.167 322.679 260.322C321.502 259.812 320.75 258.652 320.75 257.378C320.778 250.84 320.92 225.124 320.835 222.803C320.778 221.148 319.658 218.841 317.786 217.553Z" fill="#35174D"/>
<path d="M320.835 211.892C320.651 211.892 320.466 211.821 320.325 211.68L301.946 192.701C301.676 192.418 301.676 191.965 301.96 191.696C302.244 191.427 302.697 191.427 302.967 191.71L321.346 210.689C321.615 210.972 321.615 211.425 321.331 211.694C321.19 211.821 321.005 211.892 320.835 211.892Z" fill="#35164B"/>
<path d="M277.852 143.832H43.3661V298.137H277.852V143.832Z" fill="#3A3A47"/>
<path d="M277.852 143.832H43.3661V155.989H277.852V143.832Z" fill="#FFBB4E"/>
<path d="M140.989 189.955H112.84C112.06 189.955 111.422 189.319 111.422 188.54C111.422 187.762 112.06 187.125 112.84 187.125H140.989C141.769 187.125 142.407 187.762 142.407 188.54C142.407 189.319 141.769 189.955 140.989 189.955Z" fill="#E5E6ED"/>
<path d="M148.42 198.999H120.285C119.505 198.999 118.867 198.362 118.867 197.584C118.867 196.805 119.505 196.168 120.285 196.168H148.435C149.214 196.168 149.853 196.805 149.853 197.584C149.853 198.362 149.214 198.999 148.42 198.999Z" fill="#E5E6ED"/>
<path d="M135.927 237.197H117.902C117.122 237.197 116.484 236.56 116.484 235.781C116.484 235.003 117.122 234.366 117.902 234.366H135.927C136.707 234.366 137.345 235.003 137.345 235.781C137.345 236.56 136.721 237.197 135.927 237.197Z" fill="#E5E6ED"/>
<path d="M153.426 247.641H117.902C117.122 247.641 116.484 247.004 116.484 246.226C116.484 245.448 117.122 244.811 117.902 244.811H153.426C154.206 244.811 154.844 245.448 154.844 246.226C154.844 247.004 154.206 247.641 153.426 247.641Z" fill="#E5E6ED"/>
<path d="M179.562 258.086H126.184C125.404 258.086 124.766 257.449 124.766 256.671C124.766 255.892 125.404 255.255 126.184 255.255H179.562C180.342 255.255 180.98 255.892 180.98 256.671C180.98 257.449 180.342 258.086 179.562 258.086Z" fill="#E5E6ED"/>
<path d="M163.452 268.53H132.211C131.431 268.53 130.793 267.894 130.793 267.115C130.793 266.337 131.431 265.7 132.211 265.7H163.452C164.232 265.7 164.871 266.337 164.871 267.115C164.871 267.894 164.232 268.53 163.452 268.53Z" fill="#E5E6ED"/>
<path d="M156.603 280.319H125.362C124.582 280.319 123.944 279.683 123.944 278.904C123.944 278.126 124.582 277.489 125.362 277.489H156.603C157.383 277.489 158.021 278.126 158.021 278.904C158.021 279.683 157.397 280.319 156.603 280.319Z" fill="#E5E6ED"/>
<path d="M218.688 280.319H187.447C186.667 280.319 186.029 279.683 186.029 278.904C186.029 278.126 186.667 277.489 187.447 277.489H218.688C219.468 277.489 220.106 278.126 220.106 278.904C220.106 279.683 219.468 280.319 218.688 280.319Z" fill="#E5E6ED"/>
<path d="M203.06 268.53H171.819C171.039 268.53 170.401 267.894 170.401 267.115C170.401 266.337 171.039 265.7 171.819 265.7H203.06C203.84 265.7 204.478 266.337 204.478 267.115C204.478 267.894 203.84 268.53 203.06 268.53Z" fill="#BB7FEF"/>
<path d="M209.272 179.341H178.031C177.251 179.341 176.613 178.704 176.613 177.926C176.613 177.147 177.251 176.51 178.031 176.51H209.272C210.052 176.51 210.69 177.147 210.69 177.926C210.69 178.704 210.052 179.341 209.272 179.341Z" fill="#BB7FEF"/>
<path d="M199.501 258.086H187.801C187.022 258.086 186.383 257.449 186.383 256.671C186.383 255.892 187.022 255.255 187.801 255.255H199.501C200.281 255.255 200.919 255.892 200.919 256.671C200.919 257.449 200.295 258.086 199.501 258.086Z" fill="#11BDED"/>
<path d="M177.166 280.319H165.466C164.686 280.319 164.048 279.683 164.048 278.904C164.048 278.126 164.686 277.489 165.466 277.489H177.166C177.946 277.489 178.584 278.126 178.584 278.904C178.584 279.683 177.946 280.319 177.166 280.319Z" fill="#11BDED"/>
<path d="M227.282 247.641H163.452C162.672 247.641 162.034 247.004 162.034 246.226C162.034 245.448 162.672 244.811 163.452 244.811H227.282C228.062 244.811 228.7 245.448 228.7 246.226C228.7 247.004 228.062 247.641 227.282 247.641Z" fill="#E5E6ED"/>
<path d="M162.602 208.311H134.466C133.686 208.311 133.048 207.674 133.048 206.896C133.048 206.118 133.686 205.481 134.466 205.481H162.616C163.396 205.481 164.034 206.118 164.034 206.896C164.034 207.674 163.396 208.311 162.602 208.311Z" fill="#E5E6ED"/>
<path d="M245.987 179.341H217.837C217.057 179.341 216.419 178.704 216.419 177.926C216.419 177.147 217.057 176.51 217.837 176.51H245.987C246.767 176.51 247.405 177.147 247.405 177.926C247.405 178.704 246.781 179.341 245.987 179.341Z" fill="#E5E6ED"/>
<path d="M153.426 217.822H134.466C133.686 217.822 133.048 217.185 133.048 216.407C133.048 215.628 133.686 214.991 134.466 214.991H153.426C154.206 214.991 154.844 215.628 154.844 216.407C154.844 217.185 154.206 217.822 153.426 217.822Z" fill="#E5E6ED"/>
<path d="M195.374 226.738H134.466C133.686 226.738 133.048 226.101 133.048 225.323C133.048 224.544 133.686 223.907 134.466 223.907H195.388C196.168 223.907 196.807 224.544 196.807 225.323C196.807 226.101 196.168 226.738 195.374 226.738Z" fill="#E5E6ED"/>
<path d="M220.078 189.955H175.095C174.315 189.955 173.677 189.319 173.677 188.54C173.677 187.762 174.315 187.125 175.095 187.125H220.078C220.858 187.125 221.496 187.762 221.496 188.54C221.496 189.319 220.858 189.955 220.078 189.955Z" fill="#E5E6ED"/>
<path d="M266.791 189.955H227.282C226.502 189.955 225.864 189.319 225.864 188.54C225.864 187.762 226.502 187.125 227.282 187.125H266.791C267.571 187.125 268.209 187.762 268.209 188.54C268.209 189.319 267.571 189.955 266.791 189.955Z" fill="#11BDED"/>
<path d="M188.893 289.264H149.385C148.605 289.264 147.967 288.627 147.967 287.849C147.967 287.07 148.605 286.433 149.385 286.433H188.893C189.673 286.433 190.312 287.07 190.312 287.849C190.312 288.627 189.673 289.264 188.893 289.264Z" fill="#11BDED"/>
<path d="M167.225 190.097H150.562C149.782 190.097 149.144 189.46 149.144 188.682C149.144 187.903 149.782 187.266 150.562 187.266H167.225C168.005 187.266 168.643 187.903 168.643 188.682C168.643 189.46 168.019 190.097 167.225 190.097Z" fill="#F39695"/>
<path d="M187.972 208.311H171.309C170.529 208.311 169.891 207.674 169.891 206.896C169.891 206.118 170.529 205.481 171.309 205.481H187.972C188.752 205.481 189.39 206.118 189.39 206.896C189.39 207.674 188.752 208.311 187.972 208.311Z" fill="#F39695"/>
<path d="M209.215 217.822H160.815C160.035 217.822 159.397 217.185 159.397 216.407C159.397 215.628 160.035 214.991 160.815 214.991H209.215C209.995 214.991 210.633 215.628 210.633 216.407C210.633 217.185 209.995 217.822 209.215 217.822Z" fill="#F39695"/>
<path d="M260.92 217.822H238.698C237.918 217.822 237.28 217.185 237.28 216.407C237.28 215.628 237.918 214.991 238.698 214.991H260.92C261.7 214.991 262.338 215.628 262.338 216.407C262.338 217.185 261.7 217.822 260.92 217.822Z" fill="#F39695"/>
<path d="M231.919 217.822H214.49C213.71 217.822 213.072 217.185 213.072 216.407C213.072 215.628 213.71 214.991 214.49 214.991H231.919C232.699 214.991 233.337 215.628 233.337 216.407C233.337 217.185 232.699 217.822 231.919 217.822Z" fill="#FFBB4E"/>
<path d="M143.074 289.264H125.631C124.851 289.264 124.213 288.627 124.213 287.849C124.213 287.07 124.851 286.433 125.631 286.433H143.06C143.84 286.433 144.478 287.07 144.478 287.849C144.478 288.627 143.854 289.264 143.074 289.264Z" fill="#FFBB4E"/>
<path d="M191.333 170.142H173.904C173.124 170.142 172.486 169.505 172.486 168.727C172.486 167.948 173.124 167.311 173.904 167.311H191.333C192.113 167.311 192.751 167.948 192.751 168.727C192.751 169.505 192.127 170.142 191.333 170.142Z" fill="#FFBB4E"/>
<path d="M101.126 143.818H43.3661V298.123H101.126V143.818Z" fill="#1C1A23"/>
<path d="M101.126 195.277H43.3661V206.896H101.126V195.277Z" fill="black"/>
<path d="M56.1433 184.181H49.308V191.003H56.1433V184.181Z" fill="#62687E"/>
<path d="M62.6951 197.584H55.8597V204.405H62.6951V197.584Z" fill="#62687E"/>
<path d="M72.7211 209.585H65.8858V216.407H72.7211V209.585Z" fill="#62687E"/>
<path d="M72.7211 220.978H65.8858V227.799H72.7211V220.978Z" fill="#62687E"/>
<path d="M72.7211 232.371H65.8858V239.192H72.7211V232.371Z" fill="#62687E"/>
<path d="M72.7211 243.763H65.8858V250.585H72.7211V243.763Z" fill="#62687E"/>
<path d="M72.7211 255.156H65.8858V261.978H72.7211V255.156Z" fill="#62687E"/>
<path d="M181.207 109.045V177.6H36.6017V109.045C36.6017 103.384 41.1964 98.7989 46.8689 98.7989H170.94C176.613 98.7989 181.207 103.384 181.207 109.045Z" fill="#D9DEF1"/>
<path d="M181.207 109.045V123.665H36.6017V109.045C36.6017 103.384 41.1964 98.7989 46.8689 98.7989H170.94C176.613 98.7989 181.207 103.384 181.207 109.045Z" fill="#33184B"/>
<path d="M95.9358 133.317H63.2907C62.7235 133.317 62.2697 133.77 62.2697 134.336V166.915C62.2697 167.481 62.7235 167.934 63.2907 167.934H95.9358C96.503 167.934 96.9568 167.481 96.9568 166.915V134.322C96.9568 133.77 96.503 133.317 95.9358 133.317ZM94.9289 135.341V141.497H64.3117V135.341H94.9289ZM64.3117 165.882V143.507H94.9289V165.882H64.3117Z" fill="white"/>
<path d="M71.4874 155.678H81.6411C82.2084 155.678 82.6622 155.225 82.6622 154.659C82.6622 154.093 82.2084 153.64 81.6411 153.64H71.4874C70.9202 153.64 70.4664 154.093 70.4664 154.659C70.4806 155.225 70.9343 155.678 71.4874 155.678Z" fill="white"/>
<path d="M71.4874 159.74H79.6132C80.1805 159.74 80.6343 159.287 80.6343 158.721C80.6343 158.155 80.1805 157.702 79.6132 157.702H71.4874C70.9202 157.702 70.4664 158.155 70.4664 158.721C70.4664 159.287 70.9344 159.74 71.4874 159.74Z" fill="white"/>
<path d="M81.6553 161.764H71.5016C70.9343 161.764 70.4805 162.216 70.4805 162.783C70.4805 163.349 70.9343 163.802 71.5016 163.802H81.6553C82.2226 163.802 82.6764 163.349 82.6764 162.783C82.6764 162.216 82.2084 161.764 81.6553 161.764Z" fill="white"/>
<path d="M74.8341 151.333C75.2312 151.729 75.8694 151.729 76.2664 151.333C76.6635 150.937 76.6635 150.3 76.2664 149.904L74.9476 148.588L76.2664 147.271C76.6635 146.875 76.6635 146.238 76.2664 145.842C75.8694 145.446 75.2312 145.446 74.8341 145.842L72.8062 147.866C72.4092 148.262 72.4092 148.899 72.8062 149.295L74.8341 151.333Z" fill="white"/>
<path d="M84.2789 148.588L82.9742 149.89C82.5771 150.286 82.5771 150.923 82.9742 151.319C83.3713 151.715 84.0094 151.715 84.4065 151.319L86.4344 149.295C86.8315 148.899 86.8315 148.262 86.4344 147.866L84.3923 145.828C83.9953 145.432 83.3571 145.432 82.96 145.828C82.563 146.224 82.563 146.861 82.96 147.257L84.2789 148.588Z" fill="white"/>
<path d="M78.1526 151.517C78.6489 151.772 79.2587 151.56 79.514 151.064L81.5419 147.002C81.7971 146.507 81.5844 145.899 81.0881 145.644C80.5917 145.389 79.982 145.601 79.7267 146.097L77.6988 150.158C77.4435 150.654 77.6421 151.262 78.1526 151.517Z" fill="white"/>
<path d="M87.7391 153.654H85.7112C85.1439 153.654 84.6901 154.107 84.6901 154.673C84.6901 155.239 85.1439 155.692 85.7112 155.692H87.7391C88.3063 155.692 88.7601 155.239 88.7601 154.673C88.7601 154.107 88.3063 153.654 87.7391 153.654Z" fill="white"/>
<path d="M87.7391 157.716H83.6691C83.1018 157.716 82.648 158.169 82.648 158.735C82.648 159.301 83.1018 159.754 83.6691 159.754H87.7391C88.3063 159.754 88.7601 159.301 88.7601 158.735C88.7601 158.169 88.3063 157.716 87.7391 157.716Z" fill="white"/>
<path d="M87.7391 161.764H85.7112C85.1439 161.764 84.6901 162.216 84.6901 162.783C84.6901 163.349 85.1439 163.802 85.7112 163.802H87.7391C88.3063 163.802 88.7601 163.349 88.7601 162.783C88.7601 162.216 88.3063 161.764 87.7391 161.764Z" fill="white"/>
<path d="M91.8091 139.459C92.373 139.459 92.8301 139.003 92.8301 138.44C92.8301 137.877 92.373 137.421 91.8091 137.421C91.2452 137.421 90.788 137.877 90.788 138.44C90.788 139.003 91.2452 139.459 91.8091 139.459Z" fill="white"/>
<path d="M87.7391 139.459C88.303 139.459 88.7601 139.003 88.7601 138.44C88.7601 137.877 88.303 137.421 87.7391 137.421C87.1752 137.421 86.718 137.877 86.718 138.44C86.718 139.003 87.1752 139.459 87.7391 139.459Z" fill="white"/>
<path d="M83.6833 139.459C84.2472 139.459 84.7043 139.003 84.7043 138.44C84.7043 137.877 84.2472 137.421 83.6833 137.421C83.1194 137.421 82.6622 137.877 82.6622 138.44C82.6622 139.003 83.1194 139.459 83.6833 139.459Z" fill="white"/>
<path d="M267.698 162.754C266.521 162.655 265.926 161.282 266.649 160.348C268.039 158.551 270.691 156.527 275.214 157.631C275.214 157.631 283.709 155.565 285.099 165.203C286.474 174.826 288.091 178.265 288.318 189.05C288.545 199.82 283.496 217.242 305.08 216.789L316.34 216.803C316.34 216.803 320.708 216.336 320.934 225.507C321.133 233.375 321.842 252.198 322.026 257.392C322.055 258.157 321.502 258.822 320.736 258.935C315.361 259.685 295.309 262.388 288.772 262.19C281.185 261.964 261.898 255.538 263.047 232.852C264.196 210.151 266.039 184.478 264.422 179.214C262.848 174.034 261.26 169.519 266.45 167.623C266.649 167.552 266.847 167.524 267.06 167.538C268.322 167.623 272.804 168.585 273.385 177.614C274.08 188.158 275.909 203.754 277.285 202.608C278.66 201.461 277.512 176.468 276.363 173.27C275.285 170.198 278.036 163.589 267.698 162.754Z" fill="#FFAA97"/>
<path d="M268.053 268.233V313.946C268.053 319.89 263.217 324.716 257.261 324.716H211.456C205.5 324.716 200.678 319.89 200.678 313.946V268.233C200.678 262.289 205.5 257.477 211.456 257.477H257.261C263.217 257.477 268.053 262.289 268.053 268.233Z" fill="#F7684E"/>
<path d="M268.053 268.233V284.65C256.297 280.617 247.632 285.329 243.08 291.089C238.528 296.85 232.813 308.356 221.014 303.813C209.229 299.284 200.678 305.667 200.678 305.667V268.233C200.678 262.289 205.5 257.477 211.456 257.477H257.261C263.217 257.477 268.053 262.289 268.053 268.233Z" fill="#FFBB4E"/>
<path d="M221.014 294.005C227.898 294.005 233.479 288.435 233.479 281.565C233.479 274.694 227.898 269.125 221.014 269.125C214.129 269.125 208.549 274.694 208.549 281.565C208.549 288.435 214.129 294.005 221.014 294.005Z" fill="white"/>
<path d="M168.955 119.731H68.4101C63.8437 119.731 60.1425 116.037 60.1425 111.48C60.1425 106.922 63.8437 103.229 68.4101 103.229H168.94C173.507 103.229 177.208 106.922 177.208 111.48C177.208 116.051 173.507 119.731 168.955 119.731Z" fill="white"/>
<path d="M49.308 119.731C44.7417 119.731 41.0404 116.037 41.0404 111.48C41.0404 106.922 44.7417 103.229 49.308 103.229C53.8744 103.229 57.5757 106.922 57.5757 111.48C57.5757 116.051 53.8744 119.731 49.308 119.731Z" fill="white"/>
<path d="M169.139 144.88H112.84C112.258 144.88 111.776 144.398 111.776 143.818C111.776 143.238 112.258 142.757 112.84 142.757H169.139C169.72 142.757 170.203 143.238 170.203 143.818C170.203 144.398 169.72 144.88 169.139 144.88Z" fill="white"/>
<path d="M149.853 138.681H112.485C112.102 138.681 111.776 138.2 111.776 137.619C111.776 137.039 112.088 136.558 112.485 136.558H149.853C150.236 136.558 150.562 137.039 150.562 137.619C150.562 138.2 150.236 138.681 149.853 138.681Z" fill="white"/>
<path d="M127.616 150.611H112.84C112.258 150.611 111.776 150.13 111.776 149.55C111.776 148.97 112.258 148.488 112.84 148.488H127.631C128.212 148.488 128.694 148.97 128.694 149.55C128.694 150.13 128.212 150.611 127.616 150.611Z" fill="white"/>
<path d="M140.479 166.943H113.705C112.641 166.943 111.776 166.462 111.776 165.882C111.776 165.302 112.641 164.82 113.705 164.82H140.479C141.542 164.82 142.407 165.302 142.407 165.882C142.407 166.462 141.542 166.943 140.479 166.943Z" fill="white"/>
<path d="M169.139 150.611H131.984C131.403 150.611 130.921 150.13 130.921 149.55C130.921 148.97 131.403 148.488 131.984 148.488H169.139C169.72 148.488 170.203 148.97 170.203 149.55C170.203 150.13 169.72 150.611 169.139 150.611Z" fill="white"/>
<path d="M169.139 157.051H112.84C112.258 157.051 111.776 156.57 111.776 155.989C111.776 155.409 112.258 154.928 112.84 154.928H169.139C169.72 154.928 170.203 155.409 170.203 155.989C170.203 156.57 169.72 157.051 169.139 157.051Z" fill="white"/>
<path d="M143.925 161.891H112.372C112.046 161.891 111.776 161.41 111.776 160.829C111.776 160.249 112.046 159.768 112.372 159.768H143.925C144.251 159.768 144.52 160.249 144.52 160.829C144.52 161.41 144.251 161.891 143.925 161.891Z" fill="white"/>
<path d="M169.465 161.891H147.016C146.775 161.891 146.591 161.41 146.591 160.829C146.591 160.249 146.775 159.768 147.016 159.768H169.465C169.706 159.768 169.891 160.249 169.891 160.829C169.891 161.41 169.692 161.891 169.465 161.891Z" fill="white"/>
<path d="M26.8025 95.6146C18.9603 95.4589 16.3509 101.007 16.3509 114.933C16.3509 128.859 16.3509 136.912 16.3509 136.912C16.3509 136.912 11.7704 149.083 21.5838 152.338C21.5838 152.338 18.9745 161.028 26.8167 165.16C26.8167 165.16 19.4283 177.36 43.3803 188.668V177.586H36.6159C36.6159 177.586 43.3661 172.987 53.8176 170.595C64.2692 168.203 65.5738 159.513 61.8726 157.122C58.1713 154.73 46.4151 156.471 46.4151 156.471C46.4151 156.471 63.9005 148.205 63.7586 139.516C63.6168 130.826 53.6049 132.779 53.6049 132.779C53.6049 132.779 58.3982 125.604 56.0015 121.259C53.6049 116.914 40.544 116.688 33.1273 122.122L33.7796 107.121C33.7654 107.135 32.9288 95.7419 26.8025 95.6146Z" fill="#FBA795"/>
<path d="M79.6132 186.644H60.1566V188.526H79.6132V186.644Z" fill="#62687E"/>
<path d="M80.4641 200.046H66.7083V201.928H80.4641V200.046Z" fill="#62687E"/>
<path d="M91.6105 212.048H76.7203V213.93H91.6105V212.048Z" fill="#62687E"/>
<path d="M91.6105 223.44H76.7203V225.323H91.6105V223.44Z" fill="#62687E"/>
<path d="M91.6105 234.833H76.7203V236.715H91.6105V234.833Z" fill="#62687E"/>
<path d="M91.6105 246.226H76.7203V248.108H91.6105V246.226Z" fill="#62687E"/>
<path d="M91.6105 257.619H76.7203V259.501H91.6105V257.619Z" fill="#62687E"/>
<path d="M62.6951 268.346H55.8597V275.168H62.6951V268.346Z" fill="#62687E"/>
<path d="M86.1649 270.809H66.7083V272.691H86.1649V270.809Z" fill="#62687E"/>
<path d="M62.6951 278.904H55.8597V285.726H62.6951V278.904Z" fill="#62687E"/>
<path d="M86.1649 281.367H66.7083V283.249H86.1649V281.367Z" fill="#62687E"/>
<path d="M17.5422 137.336C17.4146 137.336 17.2869 137.294 17.1735 137.209C16.8898 136.997 16.8331 136.572 17.0317 136.275C17.3295 135.836 24.5335 125.576 32.2339 122.179C32.5601 122.037 32.9288 122.193 33.0564 122.533C33.184 122.872 33.0422 123.254 32.7161 123.396C25.3418 126.637 18.1236 136.94 18.0527 137.039C17.9393 137.237 17.7407 137.336 17.5422 137.336Z" fill="#DD6B66"/>
<path d="M21.5696 153.06C21.3994 153.06 21.2151 152.989 21.0733 152.862C20.7896 152.593 20.7755 152.14 21.0449 151.857C21.7965 151.064 39.6932 132.51 53.5482 132.072C53.9452 132.015 54.2714 132.369 54.2856 132.751C54.2998 133.147 53.9878 133.473 53.6049 133.487C40.3313 133.911 22.2645 152.635 22.0801 152.833C21.9383 152.989 21.754 153.06 21.5696 153.06Z" fill="#DD6B66"/>
<path d="M26.8025 165.882C26.6181 165.882 26.4338 165.811 26.292 165.67C26.0225 165.387 26.0225 164.948 26.3061 164.665C26.5898 164.396 33.3684 157.971 46.2874 155.777C46.6703 155.706 47.039 155.975 47.1099 156.357C47.1808 156.739 46.9114 157.107 46.5285 157.178C34.0774 159.287 27.3697 165.613 27.2988 165.684C27.157 165.811 26.9727 165.882 26.8025 165.882Z" fill="#DD6B66"/>
<path d="M189.971 59.0869C189.744 59.0869 189.532 59.0303 189.319 58.9312C188.638 58.5774 188.355 57.7424 188.695 57.0489C188.823 56.7942 191.9 50.9209 202.054 54.6713C202.791 54.9402 203.16 55.761 202.89 56.4828C202.621 57.2187 201.812 57.5867 201.061 57.3178C193.417 54.4873 191.304 58.167 191.219 58.3226C190.978 58.818 190.482 59.0869 189.971 59.0869Z" fill="#35174D"/>
<path d="M179.562 60.6153C179.123 60.6153 178.683 60.403 178.399 60.0209C174.897 55.0392 170.316 57.2612 169.806 57.5301C169.125 57.898 168.26 57.6433 167.891 56.9498C167.522 56.2705 167.778 55.4072 168.458 55.0392C170.94 53.6947 176.683 52.6616 180.711 58.3934C181.165 59.0302 181.009 59.9219 180.371 60.3606C180.129 60.5304 179.846 60.6153 179.562 60.6153Z" fill="#35174D"/>
<path d="M188.865 78.5749C188.851 78.5749 188.837 78.5749 188.822 78.5749C188.156 78.5325 184.809 78.2636 183.916 76.636C183.689 76.2256 183.519 75.5463 184.015 74.6688C185.291 72.3903 185.107 64.2526 182.271 62.5542C181.93 62.3561 181.831 61.9174 182.03 61.5777C182.228 61.2381 182.668 61.139 183.008 61.3371C186.695 63.5449 186.88 72.461 185.263 75.3623C185.05 75.7444 185.135 75.9001 185.178 75.9709C185.561 76.6643 187.645 77.1031 188.922 77.1738C189.319 77.2021 189.617 77.5276 189.588 77.9239C189.546 78.2919 189.234 78.5749 188.865 78.5749Z" fill="#DD6B66"/>
<path d="M189.773 83.0754C187.986 83.0754 186.667 82.6508 186.639 82.6508C186.27 82.5235 186.057 82.1272 186.185 81.7592C186.312 81.3913 186.71 81.179 187.078 81.3063C187.305 81.3771 192.737 83.0754 195.686 78.7589C195.913 78.4334 196.353 78.3626 196.679 78.5749C197.005 78.8013 197.09 79.2401 196.863 79.5656C194.878 82.4386 191.985 83.0754 189.773 83.0754Z" fill="#DD6B66"/>
<path d="M178.626 70.9325C177.648 70.9325 176.783 69.9136 176.527 68.4417C176.258 66.8566 176.854 65.5263 177.917 65.3423C178.484 65.2432 179.066 65.5121 179.52 66.0641C179.874 66.517 180.144 67.1255 180.257 67.8048C180.527 69.3899 179.931 70.7203 178.867 70.9042C178.782 70.9184 178.697 70.9325 178.626 70.9325ZM178.144 66.7434C178.045 66.8 177.775 67.3378 177.931 68.2011C178.073 69.0644 178.499 69.489 178.64 69.5031C178.74 69.4465 179.009 68.9087 178.853 68.0454C178.697 67.1821 178.272 66.7576 178.144 66.7434Z" fill="#35164B"/>
<path d="M196.509 69.2767C195.53 69.2767 194.665 68.2577 194.41 66.7858C194.14 65.2008 194.736 63.8704 195.8 63.6864C196.367 63.6015 196.948 63.8563 197.402 64.4082C197.757 64.8611 198.026 65.4697 198.14 66.149C198.409 67.7341 197.813 69.0644 196.75 69.2484C196.665 69.2625 196.58 69.2767 196.509 69.2767ZM196.027 65.0875C195.927 65.1442 195.658 65.6819 195.814 66.5453C195.956 67.4086 196.381 67.8331 196.523 67.8473C196.622 67.7907 196.892 67.2529 196.736 66.3896C196.58 65.5263 196.154 65.1017 196.027 65.0875Z" fill="#35164B"/>
<path d="M197.26 78.0088C191.46 78.0088 186.724 73.296 186.724 67.4935C186.724 61.7051 191.446 56.9781 197.26 56.9781C203.075 56.9781 207.797 61.6909 207.797 67.4935C207.797 73.2819 203.075 78.0088 197.26 78.0088ZM197.26 58.3934C192.24 58.3934 188.142 62.4693 188.142 67.4935C188.142 72.5176 192.226 76.5935 197.26 76.5935C202.295 76.5935 206.379 72.5176 206.379 67.4935C206.379 62.4693 202.295 58.3934 197.26 58.3934Z" fill="white"/>
<path d="M172.075 79.509C166.274 79.509 161.538 74.7962 161.538 68.9936C161.538 63.2053 166.26 58.4783 172.075 58.4783C177.875 58.4783 182.597 63.1911 182.597 68.9936C182.597 74.7962 177.875 79.509 172.075 79.509ZM172.075 59.9077C167.054 59.9077 162.956 63.9836 162.956 69.0078C162.956 74.0319 167.04 78.1079 172.075 78.1079C177.109 78.1079 181.179 74.0319 181.179 69.0078C181.179 63.9836 177.095 59.9077 172.075 59.9077Z" fill="white"/>
<path d="M186.807 66.4858L182.095 66.7893L182.186 68.2016L186.899 67.8981L186.807 66.4858Z" fill="white"/>
<path d="M216.587 47.9839L205.65 63.0585L206.799 63.8885L217.736 48.8139L216.587 47.9839Z" fill="white"/>
<path d="M221.071 62.6533C220.929 62.6533 220.787 62.6108 220.659 62.5259C220.333 62.2995 220.262 61.8608 220.475 61.5352C221.865 59.5397 222.375 57.7282 222.006 56.1431C221.539 54.1193 219.737 53.1145 219.723 53.1145C219.383 52.9305 219.255 52.4918 219.44 52.1521C219.624 51.8125 220.049 51.6851 220.404 51.8691C220.503 51.9257 222.758 53.1711 223.382 55.8035C223.864 57.799 223.269 60.0068 221.638 62.3561C221.524 62.5401 221.297 62.6533 221.071 62.6533Z" fill="#DD6B66"/>
<path d="M219.468 58.3934H219.454C219.057 58.3792 218.759 58.0537 218.759 57.6716C218.759 57.4593 218.844 55.6336 220.021 54.8552C220.447 54.5722 221.184 54.3316 222.248 54.7562C222.616 54.8977 222.787 55.3081 222.645 55.6761C222.503 56.0441 222.077 56.2139 221.723 56.0724C221.326 55.9167 221.014 55.9025 220.801 56.0441C220.347 56.3413 220.191 57.3036 220.177 57.7141C220.163 58.0962 219.851 58.3934 219.468 58.3934Z" fill="#DD6B66"/>
</svg>
