<svg width="467" height="334" viewBox="0 0 467 334" fill="none" xmlns="http://www.w3.org/2000/svg">
<path d="M323.814 326.409H120.87V81.1644C120.87 65.6819 133.432 53.1302 148.928 53.1302H295.756C311.252 53.1302 323.814 65.6819 323.814 81.1644V326.409Z" fill="#1F0F45"/>
<path d="M320.945 81.8689V326.409H123.569V81.8689C123.569 80.1436 123.735 78.4597 124.056 76.8286C126.405 64.7929 137.014 55.7106 149.746 55.7106H294.764C307.496 55.7106 318.11 64.7929 320.459 76.8286C320.779 78.4597 320.945 80.1436 320.945 81.8689Z" fill="#FFF0DF"/>
<path d="M320.459 76.8286H124.056C126.405 64.7929 137.014 55.7106 149.746 55.7106H294.764C307.496 55.7106 318.11 64.7929 320.459 76.8286Z" fill="#6B9AD1"/>
<path d="M185.624 68.6202C187.25 68.6202 188.568 67.303 188.568 65.6782C188.568 64.0533 187.25 62.7361 185.624 62.7361C183.997 62.7361 182.679 64.0533 182.679 65.6782C182.679 67.303 183.997 68.6202 185.624 68.6202Z" fill="#B4D1EE"/>
<path d="M258.638 68.6202C260.264 68.6202 261.583 67.303 261.583 65.6782C261.583 64.0533 260.264 62.7361 258.638 62.7361C257.012 62.7361 255.693 64.0533 255.693 65.6782C255.693 67.303 257.012 68.6202 258.638 68.6202Z" fill="#B4D1EE"/>
<path d="M248.074 68.6202H196.98C195.355 68.6202 194.035 67.3018 194.035 65.6782C194.035 64.0546 195.355 62.7361 196.98 62.7361H248.074C249.699 62.7361 251.018 64.0546 251.018 65.6782C251.018 67.3018 249.699 68.6202 248.074 68.6202Z" fill="#B4D1EE"/>
<g opacity="0.4">
<path opacity="0.0476" d="M329.462 202.323H160.642C156.242 202.323 152.676 198.76 152.676 194.364V85.8694C152.676 81.4733 156.242 77.9097 160.642 77.9097H329.462C333.862 77.9097 337.428 81.4733 337.428 85.8694V194.364C337.428 198.76 333.862 202.323 329.462 202.323Z" fill="black"/>
<path opacity="0.0952" d="M328.395 201.604H161.709C157.309 201.604 153.743 198.04 153.743 193.644V86.5889C153.743 82.1928 157.309 78.6292 161.709 78.6292H328.395C332.795 78.6292 336.361 82.1928 336.361 86.5889V193.644C336.361 198.04 332.795 201.604 328.395 201.604Z" fill="black"/>
<path opacity="0.1429" d="M327.328 200.888H162.776C158.376 200.888 154.81 197.325 154.81 192.928V87.3084C154.81 82.9123 158.376 79.3487 162.776 79.3487H327.324C331.724 79.3487 335.291 82.9123 335.291 87.3084V192.928C335.294 197.321 331.728 200.888 327.328 200.888Z" fill="black"/>
<path opacity="0.1905" d="M326.257 200.169H163.847C159.447 200.169 155.88 196.605 155.88 192.209V88.0279C155.88 83.6318 159.447 80.0682 163.847 80.0682H326.261C330.661 80.0682 334.227 83.6318 334.227 88.0279V192.209C334.227 196.605 330.657 200.169 326.257 200.169Z" fill="black"/>
<path opacity="0.2381" d="M325.19 199.449H164.914C160.514 199.449 156.947 195.886 156.947 191.489V88.7475C156.947 84.3513 160.514 80.7877 164.914 80.7877H325.19C329.59 80.7877 333.157 84.3513 333.157 88.7475V191.489C333.157 195.886 329.59 199.449 325.19 199.449Z" fill="black"/>
<path opacity="0.2857" d="M324.123 198.73H165.981C161.581 198.73 158.014 195.166 158.014 190.77V89.4669C158.014 85.0708 161.581 81.5072 165.981 81.5072H324.119C328.519 81.5072 332.086 85.0708 332.086 89.4669V190.77C332.09 195.166 328.523 198.73 324.123 198.73Z" fill="black"/>
<path opacity="0.3333" d="M323.052 198.01H167.052C162.652 198.01 159.085 194.447 159.085 190.05V90.1865C159.085 85.7904 162.652 82.2267 167.052 82.2267H323.056C327.456 82.2267 331.023 85.7904 331.023 90.1865V190.05C331.023 194.447 327.456 198.01 323.052 198.01Z" fill="black"/>
<path opacity="0.381" d="M321.985 197.291H168.118C163.719 197.291 160.152 193.727 160.152 189.331V90.9022C160.152 86.5061 163.719 82.9424 168.118 82.9424H321.985C326.385 82.9424 329.952 86.5061 329.952 90.9022V189.331C329.952 193.727 326.385 197.291 321.985 197.291Z" fill="black"/>
<path opacity="0.4286" d="M320.919 196.571H169.185C164.786 196.571 161.219 193.008 161.219 188.611V91.6217C161.219 87.2255 164.786 83.6619 169.185 83.6619H320.919C325.318 83.6619 328.885 87.2255 328.885 91.6217V188.608C328.885 193.008 325.318 196.571 320.919 196.571Z" fill="black"/>
<path opacity="0.4762" d="M319.852 195.852H170.252C165.853 195.852 162.286 192.288 162.286 187.892V92.3412C162.286 87.9451 165.853 84.3815 170.252 84.3815H319.848C324.248 84.3815 327.814 87.9451 327.814 92.3412V187.892C327.818 192.288 324.251 195.852 319.852 195.852Z" fill="black"/>
<path opacity="0.5238" d="M318.781 195.132H171.323C166.923 195.132 163.357 191.569 163.357 187.172V93.0607C163.357 88.6646 166.923 85.101 171.323 85.101H318.785C323.184 85.101 326.751 88.6646 326.751 93.0607V187.172C326.751 191.569 323.181 195.132 318.781 195.132Z" fill="black"/>
<path opacity="0.5714" d="M317.714 194.413H172.39C167.99 194.413 164.424 190.849 164.424 186.453V93.7802C164.424 89.3841 167.99 85.8205 172.39 85.8205H317.714C322.114 85.8205 325.68 89.3841 325.68 93.7802V186.453C325.68 190.849 322.114 194.413 317.714 194.413Z" fill="black"/>
<path opacity="0.619" d="M316.647 193.693H173.457C169.057 193.693 165.491 190.13 165.491 185.733V94.4997C165.491 90.1036 169.057 86.54 173.457 86.54H316.643C321.043 86.54 324.61 90.1036 324.61 94.4997V185.733C324.613 190.13 321.047 193.693 316.647 193.693Z" fill="black"/>
<path opacity="0.6667" d="M315.576 192.974H174.528C170.128 192.974 166.561 189.41 166.561 185.014V95.2193C166.561 90.8231 170.128 87.2595 174.528 87.2595H315.58C319.98 87.2595 323.546 90.8231 323.546 95.2193V185.014C323.546 189.41 319.98 192.974 315.576 192.974Z" fill="black"/>
<path opacity="0.7143" d="M314.509 192.254H175.595C171.195 192.254 167.628 188.691 167.628 184.294V95.9387C167.628 91.5426 171.195 87.9789 175.595 87.9789H314.509C318.909 87.9789 322.476 91.5426 322.476 95.9387V184.294C322.476 188.691 318.909 192.254 314.509 192.254Z" fill="black"/>
<path opacity="0.7619" d="M313.442 191.535H176.662C172.262 191.535 168.695 187.971 168.695 183.575V96.6582C168.695 92.2621 172.262 88.6985 176.662 88.6985H313.442C317.842 88.6985 321.409 92.2621 321.409 96.6582V183.575C321.409 187.971 317.842 191.535 313.442 191.535Z" fill="black"/>
<path opacity="0.8095" d="M312.375 190.819H177.729C173.329 190.819 169.762 187.255 169.762 182.859V97.3778C169.762 92.9816 173.329 89.418 177.729 89.418H312.371C316.771 89.418 320.338 92.9816 320.338 97.3778V182.859C320.342 187.252 316.775 190.819 312.375 190.819Z" fill="black"/>
<path opacity="0.8571" d="M311.304 190.099H178.8C174.4 190.099 170.833 186.536 170.833 182.14V98.0972C170.833 93.7011 174.4 90.1375 178.8 90.1375H311.308C315.708 90.1375 319.275 93.7011 319.275 98.0972V182.14C319.275 186.536 315.704 190.099 311.304 190.099Z" fill="black"/>
<path opacity="0.9048" d="M310.237 189.38H179.867C175.467 189.38 171.9 185.816 171.9 181.42V98.8167C171.9 94.4206 175.467 90.857 179.867 90.857H310.237C314.637 90.857 318.204 94.4206 318.204 98.8167V181.42C318.204 185.816 314.637 189.38 310.237 189.38Z" fill="black"/>
<path opacity="0.9524" d="M309.17 188.66H180.934C176.534 188.66 172.967 185.097 172.967 180.701V99.5362C172.967 95.1401 176.534 91.5765 180.934 91.5765H309.167C313.567 91.5765 317.133 95.1401 317.133 99.5362V180.701C317.137 185.097 313.57 188.66 309.17 188.66Z" fill="black"/>
<path opacity="0.4" d="M308.104 187.941H182.004C177.604 187.941 174.038 184.377 174.038 179.981V100.256C174.038 95.8596 177.604 92.296 182.004 92.296H308.104C312.503 92.296 316.07 95.8596 316.07 100.256V179.981C316.07 184.377 312.503 187.941 308.104 187.941Z" fill="black"/>
</g>
<path d="M325.661 197.498H163.741C159.341 197.498 155.775 193.934 155.775 189.538V88.0807C155.775 83.6846 159.341 80.121 163.741 80.121H325.661C330.061 80.121 333.628 83.6846 333.628 88.0807V189.538C333.632 193.934 330.061 197.498 325.661 197.498Z" fill="white"/>
<path d="M317.899 189.768H169.106C166.467 189.768 164.329 187.632 164.329 184.995V104.848C164.329 102.211 166.467 100.075 169.106 100.075H317.899C320.538 100.075 322.675 102.211 322.675 104.848V184.995C322.679 187.632 320.538 189.768 317.899 189.768Z" fill="#FFC549"/>
<path d="M237.638 149.913H181.82C179.301 149.913 177.261 147.875 177.261 145.358V118.315C177.261 115.799 179.301 113.761 181.82 113.761H237.638C240.156 113.761 242.196 115.799 242.196 118.315V145.358C242.196 147.875 240.153 149.913 237.638 149.913Z" fill="#FFD88F"/>
<path d="M290.613 163.534H255.011C252.493 163.534 250.453 161.496 250.453 158.98V142.021C250.453 139.504 252.493 137.466 255.011 137.466H290.613C293.132 137.466 295.172 139.504 295.172 142.021V158.98C295.172 161.496 293.132 163.534 290.613 163.534Z" fill="#FFD88F"/>
<path d="M166.38 88.4989C167.305 88.4989 168.054 87.75 168.054 86.8263C168.054 85.9026 167.305 85.1537 166.38 85.1537C165.456 85.1537 164.706 85.9026 164.706 86.8263C164.706 87.75 165.456 88.4989 166.38 88.4989Z" fill="#FEC23C"/>
<path d="M171.342 88.4989C172.267 88.4989 173.016 87.75 173.016 86.8263C173.016 85.9026 172.267 85.1537 171.342 85.1537C170.418 85.1537 169.668 85.9026 169.668 86.8263C169.668 87.75 170.418 88.4989 171.342 88.4989Z" fill="#84B4E1"/>
<path d="M176.356 88.4989C177.281 88.4989 178.03 87.75 178.03 86.8263C178.03 85.9026 177.281 85.1537 176.356 85.1537C175.432 85.1537 174.682 85.9026 174.682 86.8263C174.682 87.75 175.432 88.4989 176.356 88.4989Z" fill="#32BAA0"/>
<path d="M320.526 96.1836H166.855C165.668 96.1836 164.703 95.223 164.703 94.0326C164.703 92.846 165.664 91.8817 166.855 91.8817H320.526C321.714 91.8817 322.679 92.8422 322.679 94.0326C322.679 95.223 321.714 96.1836 320.526 96.1836Z" fill="#6B9AD1"/>
<path d="M226.945 221.878H272.196C274.349 221.878 276.098 223.253 276.098 224.944V242.197C276.098 243.893 274.352 245.264 272.196 245.264H267.506L262.355 248.5C262.02 248.711 261.526 248.522 261.526 248.187V245.268H226.945C224.793 245.268 223.043 243.893 223.043 242.201V224.948C223.043 223.249 224.793 221.878 226.945 221.878Z" fill="#81B3E0"/>
<path d="M242.863 231.74H231.063C230.361 231.74 229.792 231.171 229.792 230.471C229.792 229.77 230.361 229.201 231.063 229.201H242.863C243.565 229.201 244.134 229.77 244.134 230.471C244.13 231.171 243.565 231.74 242.863 231.74Z" fill="white"/>
<path d="M265.685 237.771H231.063C230.361 237.771 229.792 237.202 229.792 236.502C229.792 235.801 230.361 235.232 231.063 235.232H265.685C266.386 235.232 266.955 235.801 266.955 236.502C266.955 237.202 266.386 237.771 265.685 237.771Z" fill="white"/>
<path d="M297.238 171.208H238.735C235.949 171.208 233.69 173.464 233.69 176.248V204.584C233.69 207.367 235.949 209.624 238.735 209.624H244.801L251.46 214.935C251.893 215.278 252.53 214.973 252.53 214.419V209.62H297.238C300.024 209.62 302.282 207.364 302.282 204.58V176.244C302.282 173.464 300.024 171.208 297.238 171.208Z" fill="#AACDEC"/>
<path d="M264.587 182.125H244.771C244.07 182.125 243.501 181.556 243.501 180.855C243.501 180.155 244.07 179.586 244.771 179.586H264.587C265.289 179.586 265.858 180.155 265.858 180.855C265.858 181.556 265.289 182.125 264.587 182.125Z" fill="white"/>
<path d="M290.41 188.645H244.775C244.074 188.645 243.504 188.077 243.504 187.376C243.504 186.675 244.074 186.106 244.775 186.106H290.414C291.115 186.106 291.684 186.675 291.684 187.376C291.68 188.08 291.111 188.645 290.41 188.645Z" fill="white"/>
<path d="M290.41 195.17H244.775C244.074 195.17 243.504 194.601 243.504 193.9C243.504 193.2 244.074 192.631 244.775 192.631H290.414C291.115 192.631 291.684 193.2 291.684 193.9C291.68 194.605 291.111 195.17 290.41 195.17Z" fill="white"/>
<path d="M265.998 200.93H312.76C314.984 200.93 316.79 202.783 316.79 205.073V228.365C316.79 230.651 314.984 232.509 312.76 232.509H307.911L302.588 236.875C302.241 237.157 301.732 236.905 301.732 236.453V232.509H265.998C263.773 232.509 261.967 230.655 261.967 228.365V205.073C261.967 202.783 263.769 200.93 265.998 200.93Z" fill="#9DC5E9"/>
<path d="M280.151 211.53H271.513C270.812 211.53 270.243 210.961 270.243 210.261C270.243 209.56 270.812 208.991 271.513 208.991H280.151C280.852 208.991 281.422 209.56 281.422 210.261C281.422 210.961 280.852 211.53 280.151 211.53Z" fill="white"/>
<path d="M307.915 217.972H271.517C270.816 217.972 270.247 217.403 270.247 216.702C270.247 216.002 270.816 215.433 271.517 215.433H307.915C308.616 215.433 309.185 216.002 309.185 216.702C309.182 217.403 308.616 217.972 307.915 217.972Z" fill="white"/>
<path d="M308.364 224.413H271.966C271.265 224.413 270.695 223.844 270.695 223.144C270.695 222.443 271.265 221.874 271.966 221.874H308.364C309.065 221.874 309.634 222.443 309.634 223.144C309.634 223.844 309.065 224.413 308.364 224.413Z" fill="white"/>
<path d="M263.962 286.931L243.361 304.964L241.811 303.596L244.179 301.321C241.174 300.956 240.899 297.222 240.628 295.885C240.352 294.548 235.885 291.029 235.885 291.029L243.361 286.11C245.638 291.301 249.284 290.027 249.284 290.027L248.647 288.841C248.647 288.841 258.491 285.564 261.228 285.198C263.962 284.837 263.962 286.931 263.962 286.931Z" fill="#F8B6BF"/>
<path d="M263.962 286.931L243.361 304.964L241.811 303.596L244.179 301.321L252.658 293.983L249.284 290.027L248.647 288.841C248.647 288.841 258.491 285.564 261.228 285.198C263.962 284.837 263.962 286.931 263.962 286.931Z" fill="#BE2026"/>
<path d="M234.867 325.053H207.114V323.607H210.33C209.625 322.017 209.908 321.697 210.718 318.484C211.533 315.27 207.996 312.513 207.996 312.513L216.943 310.746C216.943 310.746 217.542 311.277 218.64 314.739C219.733 318.201 221.607 318.13 221.607 318.13V316.86C221.607 316.86 233.521 322.3 234.867 323.253C236.209 324.206 234.867 325.053 234.867 325.053Z" fill="#F8B6BF"/>
<path d="M234.867 325.053H207.114V323.607H210.33L221.607 323.464V316.86C221.607 316.86 233.521 322.3 234.867 323.253C236.209 324.206 234.867 325.053 234.867 325.053Z" fill="#BE2026"/>
<path d="M268.218 326.451H276.279L282.918 305.796H274.858L268.218 326.451Z" fill="#A85024"/>
<path d="M315.256 305.796L322.272 326.451H329.956L323.603 305.796H315.256Z" fill="#A85024"/>
<path d="M345.602 305.227L352.717 326.451H360.397L353.949 305.227H345.602Z" fill="#A85024"/>
<path d="M359.956 272.029V306.474H258.238V272.029C258.238 268.834 260.829 266.246 264.026 266.246H354.164C357.362 266.242 359.956 268.834 359.956 272.029Z" fill="#EFA41F"/>
<path d="M359.956 271.509V306.471H342.1C342.137 297.441 342.198 278.448 342.077 273.313C341.983 269.422 340.117 267.324 338.537 266.242H354.685C357.595 266.242 359.956 268.601 359.956 271.509Z" fill="#E08431"/>
<path d="M334.744 277.739V298.978H265.771V277.739C265.771 275.754 267.438 274.146 269.489 274.146H331.027C333.078 274.146 334.744 275.754 334.744 277.739Z" fill="#491113"/>
<path d="M280.362 274.146C279.393 274.88 278.307 276.127 278.307 278.018V298.978H265.771V277.739C265.771 275.754 267.438 274.146 269.489 274.146H280.362Z" fill="#811D18"/>
<path d="M326.872 298.982H298.071V290.416H326.872C328.244 290.416 329.356 291.527 329.356 292.898V296.499C329.356 297.87 328.244 298.982 326.872 298.982Z" fill="#C66E28"/>
<path d="M326.634 291.885H298.071V297.407H326.634V291.885Z" fill="#FFF7E0"/>
<path d="M326.913 283.375V287.861C326.913 288.818 326.133 289.598 325.171 289.598H295.892V281.638H325.171C326.133 281.638 326.913 282.414 326.913 283.375Z" fill="#5CB17E"/>
<path d="M324.636 283.1H295.892V288.121H324.636V283.1Z" fill="#F6DABC"/>
<path d="M289.912 298.752H269.078V291.109H289.912C290.809 291.109 291.541 291.836 291.541 292.736V297.128C291.537 298.021 290.809 298.752 289.912 298.752Z" fill="#7D72AB"/>
<path d="M289.279 292.676H269.078V297.407H289.279V292.676Z" fill="#FFF7E0"/>
<path d="M91.119 297.788L82.9527 325.694H91.119L99.734 297.788H91.119Z" fill="#9E4722"/>
<path d="M121.79 298.974L114.215 326.53H122.088L130.476 298.157L121.79 298.974Z" fill="#9E4722"/>
<path d="M156.099 295.757L165.679 326.447H173.476L164.341 294.559L156.099 295.757Z" fill="#9E4722"/>
<path d="M186.472 298.752L195.159 326.53H202.88L194.34 298.157L186.472 298.752Z" fill="#9E4722"/>
<path d="M102.109 297.934C102.109 297.934 110.947 301.943 122.457 300.308C133.968 298.673 161.223 295.885 161.223 295.885L150.38 290.811L102.109 297.934Z" fill="#C9812F"/>
<path d="M204.663 298.571C204.663 298.571 176.436 302.165 170.192 303.046C169.943 303.08 169.702 303.11 169.468 303.129C163.741 303.653 161.196 300.315 158.591 296.608C155.877 292.743 150.127 293.079 150.127 293.079C150.127 293.079 117.695 296.966 97.5887 299.298C77.4821 301.63 69.3082 281.932 69.3082 281.932C69.3082 281.932 39.7307 210.773 38.7844 208.305C37.8381 205.838 35.5269 202.474 33.951 201.581C32.3712 200.689 25.8412 199.611 28.1674 192.763C28.8838 190.657 30.7651 190.02 32.145 189.847C33.0499 189.734 33.7398 189.817 33.7398 189.817H58.0201L177.122 257.186L204.663 298.571Z" fill="#D07E29"/>
<path d="M169.468 303.129C163.741 303.653 161.196 300.315 158.591 296.608C155.877 292.743 150.127 293.079 150.127 293.079C150.127 293.079 117.695 296.966 97.5887 299.298C77.4821 301.63 69.3082 281.932 69.3082 281.932C69.3082 281.932 39.7307 210.773 38.7844 208.305C37.8381 205.838 35.5269 202.474 33.951 201.581C32.3712 200.689 25.8412 199.611 28.1674 192.763C28.8838 190.657 30.7651 190.02 32.145 189.847C35.0745 190.224 38.7279 191.309 41.5367 194.149C47.0902 199.773 50.9208 209.341 53.526 216.578C56.1313 223.811 76.4566 271.697 76.4566 271.697C76.4566 271.697 80.7358 291.79 99.7755 288.475C118.819 285.164 144.385 282.704 144.385 282.704C144.385 282.704 161.068 281.706 167.451 289.884C170.663 294.002 171.84 295.49 172.213 295.953C172.5 296.642 174.347 301.506 169.468 303.129Z" fill="#F6B31F"/>
<path d="M172.364 296.134C172.352 296.123 172.307 296.07 172.213 295.953C172.198 295.923 172.187 295.9 172.183 295.885C172.224 295.934 172.349 296.104 172.364 296.134Z" stroke="black" stroke-miterlimit="10"/>
<path d="M221.166 309.541C221.166 309.541 211.431 274.673 211.178 270.759C210.926 266.841 200.177 241.828 198.533 241.323C196.889 240.819 181.465 236.777 172.993 243.09C164.522 249.404 133.07 275.133 133.07 275.133L177.925 270.126L204.222 313.33C204.226 313.33 218.134 313.202 221.166 309.541Z" fill="#1F0F45"/>
<path d="M80.962 248.176C80.962 248.176 83.4768 287.688 133.07 275.133C133.07 275.133 143.917 271.433 159.126 257.823C174.336 244.213 192.455 234.17 200.26 248.176C208.064 262.182 212.294 276.85 212.294 276.85L233.325 294.559C233.325 294.559 243.376 289.538 246.815 281.872C246.815 281.872 199.864 223.991 189.944 221.878C180.025 219.765 146.036 218.574 135.849 221.878C125.666 225.182 80.962 248.176 80.962 248.176Z" fill="#3D2B7F"/>
<path d="M148.992 170.356L142.586 196.891L138.665 195.987L131.106 194.247L137.176 222.375L81.5954 250.617L52.7116 225.216C52.7116 225.216 48.6737 174.38 83.8839 166.669L106.373 160.931C106.373 160.931 127.57 158.822 148.992 170.356Z" fill="#F04F51"/>
<path d="M138.665 195.987L131.106 194.247L127.736 178.448L138.665 195.987Z" fill="#BE2026"/>
<path d="M83.654 203.043L80.3814 222.262L79.6047 230.022L78.1683 238.506L90.0973 234.509L83.654 203.043Z" fill="#BE2026"/>
<path d="M73.5497 132.14C70.9106 138.393 75.4461 145.551 79.469 148.387C83.4918 151.224 86.7305 154.539 86.968 155.88C87.2055 157.221 94.467 132.136 94.467 132.136C94.467 132.136 96.8347 125.747 90.8362 123.54C90.8362 123.54 92.3368 126.772 90.7571 127.405C89.1811 128.041 77.1805 123.544 73.5497 132.14Z" fill="#310F32"/>
<path d="M101.291 158.705C101.291 158.705 106.833 158.392 109.186 162.675C111.539 166.959 112.689 173.438 112.689 173.438L106.916 171.072L101.291 158.705Z" fill="#FCBE4E"/>
<path d="M86.9718 164.717V155.884L86.1046 147.995C83.4994 148.387 81.109 146.926 81.6821 144.364C82.5493 140.499 86.7342 143.26 86.7342 143.26C90.84 143.26 93.8411 131.665 93.8411 131.665C94.7083 131.744 97.3927 134.347 98.1807 135.847C98.7914 137.003 101.566 138.958 102.799 139.791C103.059 139.968 103.025 140.36 102.743 140.491L101.891 140.895C107.734 152.489 99.602 152.806 99.602 152.806L100.933 156.132L108.285 174.496L86.9718 164.717Z" fill="#F8B6BF"/>
<path d="M100.933 156.132C100.775 156.113 95.828 155.469 92.0616 150.892C92.0616 150.892 94.6517 152.783 99.602 152.806L100.933 156.132Z" fill="#F5909D"/>
<path d="M96.2805 139.738C96.8572 139.738 97.3248 139.271 97.3248 138.695C97.3248 138.118 96.8572 137.651 96.2805 137.651C95.7037 137.651 95.2361 138.118 95.2361 138.695C95.2361 139.271 95.7037 139.738 96.2805 139.738Z" fill="#300F31"/>
<path d="M101.306 143.607C101.306 143.607 99.3419 144.447 97.7358 143.965C97.7358 143.965 98.3993 145.287 100.771 145.291C102.415 145.294 101.306 143.607 101.306 143.607Z" fill="white"/>
<path d="M92.4914 139.071C92.4838 139.071 92.4763 139.071 92.4688 139.071C92.367 139.06 92.2916 138.966 92.3029 138.864C92.3142 138.774 92.6083 136.634 96.4728 136.107C96.5746 136.092 96.6726 136.163 96.6839 136.269C96.699 136.37 96.6273 136.468 96.5218 136.48C92.9702 136.962 92.6874 138.83 92.6761 138.909C92.6648 139 92.5819 139.071 92.4914 139.071Z" fill="black"/>
<path d="M197.489 149.385L181.835 187.455C181.835 187.455 176.556 201.77 165.095 200.263C153.633 198.756 140.215 196.345 140.215 196.345L148.992 170.356L164.329 175.766L183.482 145.603C183.482 145.603 180.1 134.502 183.588 128.437C184.093 127.563 185.175 127.141 186.11 127.518C186.593 127.71 186.988 128.102 187.034 128.851C187.147 130.859 186.973 134.298 186.973 134.298L194.046 119.931C194.45 119.114 195.404 118.729 196.259 119.034C197.142 119.351 197.632 120.285 197.391 121.185L195.302 128.994C195.302 128.994 199.46 127.684 198.857 132.656C198.857 132.656 201.922 132.438 201.485 137.632C201.485 137.632 206.19 142.932 197.489 149.385Z" fill="#F8B6BF"/>
<path d="M160.103 183.198L161.162 178.12L148.992 170.356L164.329 175.766L160.103 183.198Z" fill="#F5909D"/>
<path d="M189.371 142.77C189.371 142.77 190.103 136.48 186.785 135.018" stroke="#F5909D" stroke-miterlimit="10" stroke-linecap="round" stroke-linejoin="round"/>
<path d="M193.628 132.117C193.628 132.117 192.791 136.321 194.386 136.555C195.981 136.788 198.857 132.656 198.857 132.656" stroke="#F5909D" stroke-miterlimit="10" stroke-linecap="round" stroke-linejoin="round"/>
<path d="M196.373 137.47C196.373 137.47 195.509 142.77 198.096 141.203C200.682 139.636 201.481 137.632 201.481 137.632" stroke="#F5909D" stroke-miterlimit="10" stroke-linecap="round" stroke-linejoin="round"/>
<path d="M198.228 142.3C198.228 142.3 198.148 146.24 200.475 145.509C202.801 144.778 202.522 139.678 202.522 139.678" stroke="#F5909D" stroke-miterlimit="10" stroke-linecap="round" stroke-linejoin="round"/>
<path d="M138.665 226.685C138.665 226.685 138.703 229.51 135.167 228.655C135.167 228.655 136.358 231.443 132.117 230.772C132.117 230.772 132.675 233.077 130.145 232.893C127.615 232.708 125.085 229.695 125.085 229.695C125.085 229.695 121.439 234.452 114.706 233.191C114.706 233.191 86.3798 250.986 73.1048 253.555C59.8298 256.12 50.8341 254.84 53.0623 225.231L80.3814 222.262L80.0006 226.056L79.6047 230.022L112.138 223.385C112.138 223.385 132.592 208.121 140.705 224.248C140.705 224.248 141.678 226.425 138.665 226.685Z" fill="#F8B6BF"/>
<path d="M80.0006 226.056L79.6047 230.022L70.5976 232.019L80.0006 226.056Z" fill="#F5909D"/>
<path d="M127.193 226.142C127.193 226.142 131.204 228.241 132.117 230.772" stroke="#F5909D" stroke-miterlimit="10" stroke-linecap="round" stroke-linejoin="round"/>
<path d="M129.655 223.483C129.655 223.483 133.817 225.299 135.167 228.659" stroke="#F5909D" stroke-miterlimit="10" stroke-linecap="round" stroke-linejoin="round"/>
<path d="M132.117 221.524C132.117 221.524 137.135 223.472 138.665 226.685" stroke="#F5909D" stroke-miterlimit="10" stroke-linecap="round" stroke-linejoin="round"/>
<path d="M79.7857 167.162L87.5222 161.798L106.913 171.072L104.971 178.915L79.7857 167.162Z" fill="#FFD888"/>
<path d="M196.655 207.68L189.937 234.46C189.564 235.948 188.225 236.991 186.691 236.991H115.535C115.535 236.991 114.355 236.321 115.019 234.049H140.856L147.62 206.429C147.902 205.265 148.947 204.448 150.142 204.448H194.133C195.826 204.448 197.066 206.038 196.655 207.68Z" fill="white"/>
<path d="M141.184 236.991H115.535C115.535 236.991 114.355 236.321 115.019 234.049H140.856C140.856 234.049 139.152 235.688 141.184 236.991Z" fill="#FDE0B8"/>
<path d="M381.634 95.4415C399.902 95.4415 414.711 80.6453 414.711 62.3933C414.711 44.1413 399.902 29.3452 381.634 29.3452C363.367 29.3452 348.558 44.1413 348.558 62.3933C348.558 80.6453 363.367 95.4415 381.634 95.4415Z" fill="#A2C7EA"/>
<path d="M377.159 15.8517C372.148 19.3023 376.925 23.2991 376.925 23.2991C376.925 23.2991 372.326 26.034 374.478 31.1534C374.478 31.1534 368.77 33.5982 369.528 39.648C370.286 45.6979 378.264 53.4956 378.264 53.4956L405.926 56.2305C405.926 56.2305 409.244 35.3423 401.036 31.4434C401.036 31.4434 397.601 30.2229 397.718 25.7401C397.835 21.2611 393.582 18.5263 386.653 20.0971C386.653 20.1009 382.4 12.2429 377.159 15.8517Z" fill="#042036"/>
<path d="M390.378 36.8529C390.378 36.8529 391.486 49.0731 392.3 50.9341C393.115 52.795 384.206 61.5835 384.206 61.5835L371.221 54.2528L378.848 48.8999L379.04 46.6848L379.372 42.8462C379.372 42.8462 374.946 41.3922 375.006 37.1467C375.063 32.8975 377.453 23.5892 377.453 23.5892C377.453 23.5892 382.109 26.4408 384.79 23.5892C384.79 23.5892 385.721 28.3017 390.789 26.4408L389.624 31.9105C389.624 31.9105 391.426 30.4527 393.349 31.2702C395.271 32.0838 393.699 36.7399 390.378 36.8529Z" fill="#F9AC94"/>
<path d="M387.256 39.5689C385.914 44.1044 379.04 46.6848 379.04 46.6848L379.372 42.8462C385.054 43.2229 387.135 39.7723 387.256 39.5689Z" fill="#EA7D61"/>
<path d="M380.903 35.1728C380.899 35.1728 380.903 35.1728 380.903 35.1728C379.659 35.1502 379.199 34.7019 379.033 34.329C378.769 33.7413 379.044 32.9352 379.802 32.0612C381.035 30.641 380.058 28.5993 380.047 28.5805C380.002 28.4863 380.04 28.3733 380.134 28.3281C380.228 28.2829 380.341 28.3206 380.386 28.4147C380.432 28.5089 381.487 30.6975 380.089 32.3098C379.44 33.0557 379.18 33.7375 379.38 34.1783C379.553 34.5663 380.096 34.7848 380.91 34.7998C381.016 34.7998 381.099 34.8865 381.095 34.992C381.088 35.0899 381.005 35.1728 380.903 35.1728Z" fill="#EA7D61"/>
<path d="M384.547 29.7055C384.609 29.1514 384.304 28.6623 383.865 28.6131C383.426 28.5639 383.02 28.9733 382.958 29.5274C382.896 30.0815 383.201 30.5706 383.64 30.6197C384.078 30.6689 384.484 30.2596 384.547 29.7055Z" fill="black"/>
<path d="M378.868 28.6916C378.925 28.185 378.641 27.7373 378.233 27.6916C377.825 27.6459 377.449 28.0195 377.392 28.5261C377.335 29.0326 377.619 29.4803 378.027 29.526C378.435 29.5717 378.811 29.1981 378.868 28.6916Z" fill="black"/>
<path d="M378.128 36.2577C378.098 36.0844 378.264 35.9375 378.433 35.994C379.286 36.2878 381.45 36.9207 382.724 36.3519C384.334 35.6324 382.664 38.7175 380.492 38.4915C379.282 38.3634 378.43 37.9302 378.128 36.2577Z" fill="white"/>
<path d="M386.392 28.3017C386.355 28.3017 386.317 28.2904 386.283 28.2678C384.545 27.0548 382.792 27.7781 382.773 27.7856C382.675 27.8271 382.566 27.7818 382.524 27.6877C382.483 27.5935 382.528 27.4805 382.622 27.439C382.701 27.4051 384.579 26.6216 386.494 27.9589C386.581 28.0192 386.6 28.136 386.539 28.2226C386.509 28.2716 386.453 28.3017 386.392 28.3017Z" fill="black"/>
<path d="M379.855 27.8007C379.779 27.8007 379.708 27.7555 379.681 27.6839C379.187 26.4483 377.483 26.6254 377.464 26.6254C377.363 26.6367 377.268 26.5613 377.257 26.4596C377.246 26.3579 377.321 26.2637 377.423 26.2524C377.506 26.2411 379.433 26.0415 380.032 27.5445C380.07 27.6425 380.024 27.7517 379.926 27.7894C379.9 27.7931 379.877 27.8007 379.855 27.8007Z" fill="black"/>
<path d="M314.2 24.7004C313.959 25.5706 315.866 38.1939 321.492 40.4127C321.492 40.4127 332.173 77.1036 340.961 77.1865C349.749 77.2693 355.612 74.7228 355.612 74.7228L350.594 57.1383L345.391 59.2366L330.551 37.0525C330.551 37.0525 333.605 29.6993 330.702 24.3049C330.107 23.4121 328.282 23.3744 328.542 26.0528C328.802 28.7311 328.723 29.7369 328.723 29.7369C328.723 29.7369 323.701 18.7975 323.512 17.9047C323.328 17.0119 320.572 17.0496 321.017 19.355C321.017 19.355 319.938 17.2342 318.819 17.98C317.703 18.7259 318.483 21.9995 318.483 21.9995C318.483 21.9995 317.405 19.6187 316.36 20.6245C315.316 21.6303 316.247 24.1241 316.247 24.1241C316.247 24.1241 314.754 22.6775 314.2 24.7004Z" fill="#F9AC94"/>
<path d="M317.665 31.9746C317.612 31.9746 317.556 31.952 317.522 31.9068C317.454 31.8277 317.465 31.7071 317.544 31.6431C317.763 31.4585 322.973 27.1415 325.741 26.5048C325.843 26.4822 325.944 26.5463 325.967 26.648C325.99 26.7497 325.925 26.8514 325.824 26.874C323.143 27.488 317.835 31.8879 317.782 31.9331C317.752 31.9595 317.706 31.9746 317.665 31.9746Z" fill="#EA7D61"/>
<path d="M326.638 36.4008C326.551 36.4008 326.472 36.3406 326.453 36.2502C326.412 36.043 325.481 31.2023 328.655 30.0459C328.753 30.012 328.862 30.0609 328.896 30.1589C328.93 30.2568 328.881 30.3661 328.783 30.4C325.91 31.4472 326.811 36.1296 326.823 36.1786C326.842 36.2803 326.777 36.3782 326.676 36.4008C326.664 36.4008 326.653 36.4008 326.638 36.4008Z" fill="#EA7D61"/>
<path d="M323.475 26.6141C323.396 26.6141 323.324 26.5651 323.298 26.4898L321.25 20.6471C321.216 20.5492 321.269 20.4399 321.367 20.406C321.465 20.3721 321.575 20.4249 321.609 20.5228L323.656 26.3655C323.69 26.4634 323.637 26.5727 323.539 26.6066C323.516 26.6103 323.494 26.6141 323.475 26.6141Z" fill="#EA7D61"/>
<path d="M320.643 28.2151C320.564 28.2151 320.493 28.1661 320.466 28.0908L318.234 21.7207C318.2 21.6228 318.253 21.5135 318.351 21.4796C318.449 21.4457 318.558 21.4985 318.592 21.5964L320.824 27.9665C320.858 28.0644 320.805 28.1737 320.707 28.2076C320.685 28.2113 320.666 28.2151 320.643 28.2151Z" fill="#EA7D61"/>
<path d="M318.185 29.8876C318.106 29.8876 318.034 29.8386 318.008 29.7595L316.07 24.1768C316.036 24.0788 316.089 23.9696 316.187 23.9357C316.285 23.9018 316.391 23.9545 316.428 24.0525L318.366 29.6352C318.4 29.7332 318.347 29.8424 318.249 29.8763C318.227 29.8838 318.208 29.8876 318.185 29.8876Z" fill="#EA7D61"/>
<path d="M349.964 57.451C349.964 57.451 368.669 47.8865 378.241 49.3217C378.241 49.3217 375.527 55.5298 380.126 56.2267C384.726 56.9236 391.912 49.4611 391.912 49.4611C391.912 49.4611 403.012 52.3881 407.378 57.8541C411.743 63.32 414.948 71.2948 414.948 71.2948L398.876 79.5559L403.709 97.1254H356.777L359.571 73.1482L354.854 75.0167L349.964 57.451Z" fill="#F26722"/>
<path d="M396.862 73.4872L403.713 97.1329L421.535 90.2392L414.952 71.2986L396.862 73.4872Z" fill="#F9AC94"/>
<path d="M65.8509 118.97C89.374 118.97 108.443 99.9174 108.443 76.4142C108.443 52.9111 89.374 33.8581 65.8509 33.8581C42.3278 33.8581 23.2586 52.9111 23.2586 76.4142C23.2586 99.9174 42.3278 118.97 65.8509 118.97Z" fill="#8EB9E3"/>
<path d="M45.2202 36.0505C41.0277 44.6732 54.6043 55.8425 54.6043 55.8425C54.6043 55.8425 73.1991 35.9902 67.9283 28.9873C62.6575 21.9844 51.8822 33.9071 51.8822 33.9071C51.8822 33.9071 47.192 31.9972 45.2202 36.0505Z" fill="#151744"/>
<path d="M71.461 66.085L66.3636 75.0581C66.3636 75.0581 50.7813 67.2415 52.1159 65.1019C53.4468 62.9622 53.2168 48.9526 53.2168 48.9526C49.7972 49.2426 48.2326 47.2198 49.2204 44.6732C50.2044 42.1267 53.6806 44.6732 53.6806 44.6732V38.2467C66.5371 37.3803 67.5249 34.717 67.5249 34.717C67.5249 34.717 68.3355 38.5367 70.4204 46.9297C72.5054 55.3226 65.8999 55.8425 65.8999 55.8425L66.0319 59.9259L66.1337 63.0752L71.461 66.085Z" fill="#F9B19B"/>
<path d="M66.0319 59.9259C66.0319 59.9259 58.9966 57.3945 57.7562 53.0285C57.7562 53.0285 60.3501 56.2305 65.8999 55.8425L66.0319 59.9259Z" fill="#EC866C"/>
<path d="M57.5564 41.8818C57.5564 41.8818 58.6912 40.1226 62.2956 41.313" stroke="black" stroke-miterlimit="10" stroke-linecap="round"/>
<path d="M64.9951 40.4316C64.9951 40.4316 65.4249 38.5518 67.7775 39.373" stroke="black" stroke-miterlimit="10" stroke-linecap="round"/>
<path d="M64.4484 41.136C64.4484 41.136 63.9394 43.9914 65.5078 44.9708C67.0762 45.9502 67.7813 47.0841 66.5672 47.28C65.3532 47.4759 65.3532 47.4759 65.3532 47.4759" stroke="#CA6855" stroke-miterlimit="10" stroke-linecap="round"/>
<path d="M63.8225 49.2765C63.8225 49.2765 66.3674 49.7474 67.7775 48.8056C69.1876 47.8676 67.8152 50.7231 66.3863 50.7607C64.9574 50.8022 63.9771 50.1768 63.8225 49.2765Z" fill="white"/>
<path d="M60.788 43.6754C61.1468 43.5826 61.3518 43.1759 61.2459 42.767C61.14 42.3582 60.7632 42.102 60.4044 42.1948C60.0456 42.2876 59.8406 42.6942 59.9465 43.1031C60.0525 43.512 60.4292 43.7682 60.788 43.6754Z" fill="black"/>
<path d="M66.878 42.1397C67.2351 42.079 67.4672 41.6923 67.3963 41.276C67.3254 40.8596 66.9784 40.5713 66.6213 40.632C66.2641 40.6927 66.032 41.0795 66.1029 41.4958C66.1738 41.9121 66.5208 42.2004 66.878 42.1397Z" fill="black"/>
<path d="M24.0428 88.6345C24.0428 88.6345 31.8132 64.6423 52.7154 62.7776C52.7154 62.7776 57.119 72.8582 66.5182 70.4586C67.9472 69.8973 69.7305 67.3244 66.1337 63.0752C66.1337 63.0752 87.6089 60.815 108.443 85.2818V114.563H24.0428V88.6345Z" fill="#FFCF69"/>
<path d="M62.0618 96.6507L66.7708 103.624C66.7708 103.624 92.6761 94.6467 97.3022 93.3395C101.924 92.0324 111.346 83.4624 111.923 82.5771C112.5 81.6919 114.502 84.3099 111.655 87.1955C108.813 90.081 110.634 90.4803 115.166 88.3482C119.697 86.2161 125.119 83.3757 125.119 83.3757C125.119 83.3757 126.853 84.2647 125.119 86.6154C125.119 86.6154 126.231 86.3479 126.672 87.1917C127.117 88.0355 125.028 90.6084 125.028 90.6084C125.028 90.6084 126.141 90.3862 126.54 91.3204C126.94 92.2508 124.765 94.4282 124.765 94.4282C124.765 94.4282 125.741 94.2059 125.741 95.2268C125.741 96.2477 115.716 102.863 104.288 102.772C104.288 102.772 74.4395 125.246 61.4812 125.672C48.5229 126.098 43.1164 106.185 43.1164 106.185L62.0618 96.6507Z" fill="#F9B19B"/>
<path d="M53.3262 82.4001L62.0618 96.6508L66.7709 103.624L71.461 102.007L53.3262 82.4001Z" fill="#CA7A29"/>
<path d="M86.8209 82.0459L90.7835 95.4302L95.7715 93.8028C95.7753 93.8028 87.6466 85.5756 86.8209 82.0459Z" fill="#CA7A29"/>
<path d="M30.7199 86.5513L43.1164 106.193L45.8046 113.083C45.8046 113.083 33.2007 102.531 30.7199 86.5513Z" fill="#CA7A29"/>
<path d="M411.219 236.991C435.775 236.991 455.682 217.102 455.682 192.567C455.682 168.032 435.775 148.142 411.219 148.142C386.664 148.142 366.757 168.032 366.757 192.567C366.757 217.102 386.664 236.991 411.219 236.991Z" fill="#A2C7EA"/>
<path d="M407.928 136.31C399.833 139.101 402.454 145.686 402.454 145.686C402.454 145.686 399.339 145.935 399.995 150.308C400.433 151.619 403.916 153.149 403.916 153.149L423.111 169.03C423.111 169.03 432.152 153.657 432.008 150.598C431.861 147.539 428.434 146.082 428.434 146.082C428.434 146.082 429.237 142.586 425.079 142.729C425.079 142.729 422.892 136.826 416.694 139.452C416.694 139.452 413.236 134.479 407.928 136.31Z" fill="#151744"/>
<path d="M422.673 161.086C422.673 161.086 423.405 177.115 425.444 180.467C427.488 183.82 410.134 190.374 410.134 190.374C410.134 190.374 401.673 181.631 409.478 177.627C409.478 177.627 409.692 176.67 409.881 175.382C410.13 173.675 410.33 171.389 409.915 169.976C409.915 169.976 409.628 169.961 409.168 169.825C409.165 169.822 409.161 169.822 409.157 169.822C407.498 169.317 403.66 167.185 403.204 158.245C402.623 146.809 403.204 147.754 403.204 147.754C403.204 147.754 407.653 150.086 409.987 146.006C409.987 146.006 414.59 151.103 421.437 147.683C421.437 147.683 419.246 151.909 420.924 156.132C420.924 156.132 425.154 153.8 426.176 156.132C427.194 158.464 426.319 161.233 422.673 161.086Z" fill="#F9AF9A"/>
<path d="M419.849 165.354C418.274 172.21 409.881 175.382 409.881 175.382C410.13 173.675 410.33 171.389 409.915 169.976C417.093 171.603 419.849 165.354 419.849 165.354Z" fill="#E77F62"/>
<path d="M405.051 155.691C405.524 155.691 405.907 155.309 405.907 154.836C405.907 154.364 405.524 153.981 405.051 153.981C404.579 153.981 404.195 154.364 404.195 154.836C404.195 155.309 404.579 155.691 405.051 155.691Z" fill="black"/>
<path d="M414.009 156.543C414.482 156.543 414.865 156.16 414.865 155.688C414.865 155.215 414.482 154.833 414.009 154.833C413.537 154.833 413.154 155.215 413.154 155.688C413.154 156.16 413.537 156.543 414.009 156.543Z" fill="black"/>
<path d="M407.856 162.122C407.807 161.952 407.958 161.786 408.132 161.828C409.01 162.028 411.231 162.434 412.433 161.734C413.96 160.848 412.618 164.096 410.439 164.096C409.225 164.096 408.331 163.757 407.856 162.122Z" fill="white"/>
<path d="M410.62 160.807C409.983 160.807 408.509 160.732 408.173 160.054C408.015 159.737 408.113 159.36 408.463 158.935C409.794 157.311 408.795 153.134 408.784 153.092L409.15 153.002C409.195 153.183 410.205 157.405 408.754 159.172C408.505 159.473 408.422 159.715 408.509 159.884C408.735 160.34 410.081 160.457 410.88 160.423L410.895 160.799C410.854 160.803 410.756 160.807 410.62 160.807Z" fill="#CE6E58"/>
<path d="M404.618 158.539C402.314 158.539 400.44 156.667 400.44 154.365C400.44 152.064 402.314 150.192 404.618 150.192C406.921 150.192 408.795 152.064 408.795 154.365C408.795 156.667 406.921 158.539 404.618 158.539ZM404.618 150.568C402.521 150.568 400.817 152.271 400.817 154.365C400.817 156.46 402.521 158.163 404.618 158.163C406.714 158.163 408.418 156.46 408.418 154.365C408.418 152.271 406.714 150.568 404.618 150.568Z" fill="black"/>
<path d="M414.428 159.244C412.124 159.244 410.25 157.371 410.25 155.07C410.25 152.768 412.124 150.896 414.428 150.896C416.731 150.896 418.605 152.768 418.605 155.07C418.605 157.371 416.731 159.244 414.428 159.244ZM414.428 151.273C412.332 151.273 410.628 152.975 410.628 155.07C410.628 157.164 412.332 158.867 414.428 158.867C416.524 158.867 418.228 157.164 418.228 155.07C418.228 152.975 416.524 151.273 414.428 151.273Z" fill="black"/>
<path d="M410.439 154.648H408.607V155.025H410.439V154.648Z" fill="black"/>
<path d="M418.431 154.899L418.411 155.275L422.955 155.521L422.975 155.145L418.431 154.899Z" fill="black"/>
<path d="M379.399 195.95C379.399 195.95 392.029 176.587 409.478 177.627C409.478 177.627 404.244 185.07 410.499 185.982C416.754 186.894 424.63 178.267 424.63 178.267C424.63 178.267 447.078 179.657 453.472 205.322V238.14H379.399V195.95Z" fill="#3953A5"/>
<path d="M379.647 185.142C379.647 185.142 380.435 183.142 383.067 182.437C385.699 181.733 389.005 182.961 388.575 186.472L379.647 185.142Z" fill="#EA9E8C"/>
<path d="M386.634 186.137H383.452L380.824 173.543L380.454 171.78L380.439 171.705L380.13 170.236C380.107 170.13 380.096 170.021 380.096 169.919C380.096 169.094 380.767 168.39 381.634 168.39C382.358 168.386 382.988 168.895 383.139 169.607L383.47 171.181L383.493 171.287L383.874 173.08L386.634 186.137Z" fill="white"/>
<path d="M383.493 171.287L380.454 171.78L380.13 170.236C380.107 170.13 380.096 170.021 380.096 169.919C380.096 169.094 380.767 168.39 381.634 168.39C382.358 168.386 382.988 168.895 383.139 169.607L383.493 171.287Z" fill="black"/>
<path d="M383.874 173.08L380.824 173.543L380.454 171.78L380.439 171.705L383.47 171.181L383.493 171.287L383.874 173.08Z" fill="#3953A5"/>
<path d="M375.251 189.508C375.251 189.508 376.458 185.391 380.081 184.611C383.704 183.831 391.75 184.698 389.032 188.514C389.032 188.514 390.31 189.934 390.027 191.354C389.744 192.774 375.821 191.354 375.821 191.354L375.251 189.508Z" fill="#F9AF9A"/>
<path d="M357.509 190.86H392.3L406.084 235.59H371.296L357.509 190.86Z" fill="#6BA3D7"/>
<path d="M362.463 192.333H386.317C386.317 192.333 386.404 190.585 385.227 190.378C384.051 190.171 381.152 190.261 381.152 190.261L380.352 188.691C380.111 188.216 379.625 187.918 379.093 187.918H369.377C368.744 187.918 368.19 188.336 368.02 188.947L367.684 190.126H364.367C363.831 190.126 363.345 190.435 363.119 190.921L362.463 192.333Z" fill="#2A347A"/>
<path d="M394.777 205.126L403.89 217.625L421.621 230.124L423.691 218.45L447.055 219.528C447.055 219.528 440.488 247.961 434.124 250.504C427.759 253.047 406.582 240.721 396.402 227.887C396.402 227.887 377.57 220.906 377.634 214.024C377.634 214.024 377.774 212.962 379.395 213.9C379.395 213.9 377.261 212.084 378.011 210.585C378.761 209.082 380.956 210.961 380.956 210.961C380.956 210.961 378.132 208.396 378.765 207.209C379.399 206.019 381.521 206.765 382.584 207.861C382.584 207.861 380.643 205.269 381.582 204.331C382.52 203.393 383.648 203.955 384.963 205.582C386.279 207.209 394.106 213.651 395.169 213.715C395.169 213.715 390.57 204.041 394.777 205.126Z" fill="#F9AF9A"/>
<path d="M387.542 213.414C387.501 213.414 387.463 213.402 387.429 213.376C385.623 212.016 382.279 207.733 382.14 207.552C382.076 207.469 382.091 207.352 382.174 207.288C382.253 207.224 382.373 207.239 382.437 207.322C382.471 207.368 385.891 211.749 387.655 213.078C387.738 213.142 387.754 213.259 387.693 213.342C387.659 213.387 387.603 213.414 387.542 213.414Z" fill="#CE6E58"/>
<path d="M385.898 215.896C385.857 215.896 385.815 215.881 385.782 215.855C384.224 214.615 380.959 211.24 380.824 211.097C380.752 211.022 380.752 210.905 380.827 210.829C380.903 210.758 381.02 210.758 381.095 210.833C381.129 210.867 384.477 214.333 386.019 215.561C386.102 215.625 386.113 215.745 386.049 215.825C386.008 215.87 385.951 215.896 385.898 215.896Z" fill="#CE6E58"/>
<path d="M384.918 219.068C384.888 219.068 384.862 219.06 384.832 219.049C382.999 218.122 379.41 214.197 379.259 214.031C379.187 213.956 379.195 213.836 379.27 213.764C379.346 213.696 379.466 213.7 379.538 213.775C379.576 213.817 383.233 217.814 385.005 218.71C385.099 218.755 385.137 218.872 385.088 218.962C385.05 219.03 384.986 219.068 384.918 219.068Z" fill="#CE6E58"/>
<path d="M388.896 188.645C387.983 187.689 382.852 187.304 380.948 187.237L380.963 186.86C381.25 186.871 387.965 187.123 389.167 188.385L388.896 188.645Z" fill="#CE6E58"/>
<path d="M421.625 230.128L428.529 235.149L422.085 227.536L421.625 230.128Z" fill="#E77F62"/>
<path d="M426.572 201.288L423.695 218.454L421.625 230.128L417.595 227.288L426.572 201.288Z" fill="#2F3762"/>
<path d="M449.642 199.227L447.063 219.531C447.063 219.531 451.584 211.248 451.866 210.603C452.145 209.959 449.642 199.227 449.642 199.227Z" fill="#2F3762"/>
</svg>
